<style type="text/css">
  text.style {
    font-family: undefined;
    font-size: 21px;
    font-weight: bold;
  }  
</style>

<svg version="1.1" id="Capa_1" xmlns="http://www.w3.org/2000/svg" xmlns:xlink="http://www.w3.org/1999/xlink" x="100px" y="px"
	 viewBox="0 0 47.058 47.058" style="enable-background:new 0 0 47.058 47.058;" xml:space="preserve">

    <rect  transform="skewX(-30)" x="10" y="4" width="500" height="30" fill="#000000">
        <animate attributeType="XML" attributeName="x" from="-700" to="400" dur="10s" repeatCount="indefinite"/>
        <animate attributeName="opacity" from="0.7" to="0.2" begin="0s" dur="10s" repeatCount="indefinite" />
    </rect>
    
    <g transform="translate(-110.0000,60.000000)  scale(0.300000,-0.300000)" opacity="0.95">
        <path id="pulsar" stroke="#666" stroke-dasharray="814" stroke-dashoffset:"814" fill="none" stroke-width="2" stroke-linejoin="round" d="M0,90L250,90Q257,60 262,87T267,95 270,88 273,92t6,35 7,-60T290,127 297,107s2,-11 10,-10 1,1 8,-10T319,95c6,4 8,-6 10,-17s2,10 9,11h210" />
        <animate attributeName="opacity" from="1" to="0" begin="0s" dur="2.4s" repeatCount="indefinite" />
        <animate attributeName="stroke-dashoffset" from="2114" to="-814" begin="0s" dur="2.4s" repeatCount="indefinite" />
    </g>
    
    <g transform="translate(-80.5000,40.000000)  scale(0.0400000,-0.0400000)" opacity="0.95" fill="#f5222d" stroke="none">
        <path d="M0 637 l0 -293 160 -172 c89 -94 165 -172 170 -172 5 0 81 78 170 172 l160 172 0 293 0 293 -330 0 -330 0 0 -293z m383 134 c21 -5 47 -17 58 -27 16 -15 17 -20 6 -31 -11 -11 -19 -11 -50 2 -55 23 -103 19 -132 -10 -54 -53 -18 -118 73 -131 99 -14 142 -54 142 -132 0 -117 -174 -165 -285 -79 -19 15 -19 17 -3 33 15 16 18 15 51 -5 77 -47 187 -17 187 53 0 49 -18 64 -98 81 -107 22 -142 53 -142 126 0 92 85 145 193 120z"/>
        
    </g>
    
    <g transform="translate(-30.0000,45.000000)"  width="100" height="30" >
        <path id="pulsar" stroke="rgba(0,155,155,1)" fill="none" stroke-width="1" stroke-linejoin="round" d="M0,90L250,90Q257,60 262,87T267,95 270,88 273,92t6,35 7,-60T290,127 297,107s2,-11 10,-10 1,1 8,-10T319,95c6,4 8,-6 10,-17s2,10 9,11h210" />
    </g>
    
    <g transform="translate(-92.5000,-7.300000)">
      <path fill="none" stroke="rgba(255,1,1,.5)" stroke-width=".6" fill="#FF6700" d="M25.251,6.461c-10.318,0-18.683,8.365-18.683,18.683h4.068c0-8.071,6.543-14.615,14.615-14.615V6.461z" transform="rotate(275.098 25 25)">
        <animateTransform attributeType="xml" attributeName="transform" type="rotate" from="0 25 25" to="360 25 25" dur="4.6s" repeatCount="indefinite"></animateTransform>
      </path>
    </g>
    
    <g transform="translate(-99.5000,-5.00000)">
      <svg viewBox="0 0 33 52">
        <path fill="rgba(0,2,3,.3)" d="M25.251,6.461c-10.318,0-18.683,8.365-18.683,18.683h4.068c0-8.071,6.543-14.615,14.615-14.615V6.461z" transform="rotate(275.098 25 25)">
          <animateTransform attributeType="xml" attributeName="transform" type="rotate" from="360 25 25" to="0 25 25" dur="4.6s" repeatCount="indefinite"></animateTransform>
        </path>
      </svg>
    </g>
    
    <g transform="translate(-85.0000,35.000000) scale(0.00700000,-0.00700000)" fill="#222" stroke="none">
        <path fill="red" d="M2591 4865 c-16 -14 -33 -35 -36 -45 -6 -19 -16 -20 -168 -20 -327 -1 -638 -79 -972 -247 -459 -230 -845 -630 -1069 -1105 -29 -62 -73 -172 -97 -245 l-44 -132 -59 -3 -59 -3 -14 -40 c-8 -22 -26 -96 -41 -165 -25 -118 -27 -140 -27 -390 0 -235 3 -279 23 -385 43 -226 104 -432 172 -582 l29 -63 63 0 64 0 35 -72 c41 -87 168 -283 246 -381 315 -397 784 -698 1275 -821 158 -40 356 -66 496 -66 105 0 122 -2 122 -16 0 -9 15 -31 34 -50 31 -31 40 -34 91 -34 51 0 60 3 91 34 31 31 34 40 34 91 0 51 -3 60 -34 91 -30 30 -40 34 -89 34 -45 0 -61 -5 -86 -25 -16 -14 -33 -35 -36 -45 -5 -17 -16 -20 -73 -20 -147 1 -381 33 -557 76 -264 66 -587 224 -820 403 -396 303 -692 752 -820 1247 -154 591 -58 1233 263 1759 122 201 306 413 495 571 390 327 918 524 1404 524 106 0 123 -2 123 -16 0 -9 15 -31 34 -50 31 -31 40 -34 91 -34 51 0 60 3 91 34 31 31 34 40 34 91 0 51 -3 60 -34 91 -30 30 -40 34 -89 34 -45 0 -61 -5 -86 -25z"/>
        <path fill="#123" d="M2215 4609 c-226 -29 -474 -103 -679 -203 -666 -325 -1117 -959 -1206 -1696 -13 -109 -13 -401 0 -510 59 -487 276 -935 621 -1279 342 -343 778 -555 1272 -621 101 -13 423 -13 524 0 337 45 659 163 923 337 543 359 883 906 970 1556 13 101 13 423 0 524 -33 245 -102 479 -204 687 -325 666 -959 1117 -1696 1206 -100 12 -425 11 -525 -1z m585 -144 c798 -132 1444 -714 1649 -1486 54 -201 65 -293 65 -524 0 -231 -11 -323 -65 -524 -185 -698 -742 -1255 -1440 -1440 -199 -53 -293 -65 -524 -65 -231 0 -322 11 -524 65 -698 185 -1255 742 -1440 1440 -54 201 -65 293 -65 524 0 231 11 323 65 524 165 624 624 1134 1235 1374 151 59 378 113 559 131 83 8 394 -4 485 -19z"/>
        <path fill="#fff" d="M1700 4147 c-237 -108 -493 -307 -664 -516 -152 -186 -272 -413 -342 -645 -30 -98 -30 -116 -4 -116 11 0 20 7 20 15 0 30 64 213 110 317 174 390 495 718 880 900 41 19 85 38 98 42 23 8 32 46 10 46 -7 0 -56 -19 -108 -43z"/>
        <path fill="#fff" d="M3230 4143 c0 -12 27 -32 87 -63 450 -233 780 -632 922 -1115 19 -63 32 -91 44 -93 26 -5 22 32 -19 155 -153 463 -476 848 -904 1076 -109 58 -130 64 -130 40z"/>
        <path fill="#fff" d="M820 1605 c0 -10 101 -174 148 -240 176 -249 417 -450 707 -592 72 -34 133 -63 138 -63 4 0 7 8 7 19 0 14 -34 35 -134 84 -278 137 -489 313 -670 558 -39 53 -89 128 -111 167 -31 55 -45 72 -62 72 -13 0 -23 -2 -23 -5z"/>
        <path fill="#fff" d="M4097 1588 c-92 -151 -121 -195 -187 -277 -165 -206 -383 -382 -608 -491 -57 -28 -72 -39 -72 -57 l0 -22 64 28 c303 136 618 426 802 738 30 50 54 94 54 97 0 16 -41 3 -53 -16z"/>
    </g>
    
  <text id="txt" x="-33" y="25" class="style"></text>
</svg>
